<svg xmlns="http://www.w3.org/2000/svg" xmlns:xlink="http://www.w3.org/1999/xlink" width="342" height="319.0025329589844" viewBox="0 0 342 319.0025329589844" fill="none">
<path d="M208.099 4.0282C172.04 20.2341 166.938 66.297 129.933 73.7548C92.9281 81.1868 39.3841 49.9363 11.4369 78.7611C-6.47803 97.2121 -8.11186 139.327 41.9352 156.797C91.9822 174.268 81.348 207.299 86.6221 227.814C91.9249 248.329 120.675 272.819 162.18 246.807C203.685 220.795 230.543 222.292 254.936 219.505C279.329 216.718 298.706 183.712 277.609 152.901C256.541 122.089 262.475 90.7091 268.609 74.1419C270.587 68.826 272.278 53.962 273.138 45.4203C275.316 23.8985 262.675 13.2924 247.942 5.00881C238.139 -0.513578 222.288 -2.34577 208.099 4.0282Z"   fill="#FBF7F4" >
</path>
<path d="M134.694 166.253L134.694 260.575L254.414 260.575L254.414 166.97L134.694 166.253Z"   fill="#B55046" >
</path>
<path d="M131.17 89.6268L131.17 51.6797C131.17 50.2947 132.736 49.4901 133.854 50.3004C141.141 55.5761 160.88 71.9492 163.052 95.8335C165.723 125.195 131.17 89.6268 131.17 89.6268Z"   fill="#774D46" >
</path>
<path d="M183.165 95.841C180.99 71.9434 161.257 55.5782 153.979 50.2976C152.853 49.4888 151.293 50.2976 151.293 51.6772L151.293 80.681C149.027 80.5066 146.656 80.4431 144.18 80.4907C110.686 81.1092 85.1011 80.9664 70.3952 80.7603C62.3669 80.6493 56.1094 87.7536 57.3099 95.6824C59.6058 110.906 66.7637 132.679 88.7925 136.881C98.5164 138.736 107.385 139.751 115.128 140.259C111.167 150.344 104.954 169.643 104.714 191.59C104.354 223.845 207.22 200.201 207.22 200.201C207.22 200.201 203.634 163.268 191.089 143.922C183.916 132.837 185.146 124.02 184.441 110.858C184.156 105.768 183.751 100.551 183.165 95.841Z"   fill="#9C685D" >
</path>
<path d="M83.3189 80.8865C78.3696 80.8529 74.0481 80.8072 70.3937 80.7553C62.3681 80.6455 56.1109 87.7456 57.3063 95.6814C58.0283 100.473 59.2343 105.914 61.2354 111.254C68.1022 108.222 79.722 100.314 83.3189 80.8865Z"   fill="#3B3630" >
</path>
<circle cx="138.14688247070313" cy="108.18682998046874" r="10.9386"   fill="#FBF7F4" >
</circle>
<path d="M133.535 108.187C133.535 113.463 137.812 117.741 143.09 117.741C143.224 117.741 143.358 117.736 143.493 117.73C146.831 115.857 149.087 112.288 149.087 108.187C149.087 104.086 146.831 100.517 143.493 98.6439C143.359 98.6382 143.224 98.6324 143.09 98.6324C137.812 98.6324 133.535 102.911 133.535 108.187Z"   fill="#3B3630" >
</path>
<path d="M159.191 108.187C159.191 108.187 127.847 114.166 127.207 125.636C126.574 137.105 154.171 125.636 154.171 125.636L159.191 108.187Z"   fill="#9C685D" >
</path>
<path    stroke="rgba(59, 54, 48, 1)" stroke-width="0.5" stroke-linejoin="round" stroke-linecap="round"  d="M130.207 119.948C130.207 119.948 137.169 113.22 152.212 109.839">
</path>
<path    stroke="rgba(59, 54, 48, 1)" stroke-width="0.5" stroke-linejoin="round" stroke-linecap="round"  d="M91.3991 137.185C91.3991 137.185 95.7458 133.869 98.0771 130.555">
</path>
<path d="M189.647 141.519C184.087 131.531 185.095 123.06 184.433 110.851C184.159 105.758 183.755 100.553 183.168 95.8354C183.168 95.8354 183.093 95.0577 183.048 94.6688C175.452 99.4569 161.886 110.284 165.283 124.92C168.251 137.696 180.867 140.887 189.647 141.519Z"   fill="#774D46" >
</path>
<path   fill="rgba(245, 156, 111, 1)"  d="M110.957 141.309L109.349 154.06L108.992 154.015L109.096 153.67L108.992 154.015L109.096 153.67Q109.803 153.883 111.126 154.215Q113.779 154.881 116.848 155.47Q121.148 156.295 125.665 156.848Q131.313 157.54 136.979 157.766Q151.401 158.34 164.707 155.881Q181.333 152.809 195.26 145.15L195.434 145.465L195.096 145.591L190.186 132.396L190.524 132.271L190.72 132.573L190.524 132.271L190.72 132.573Q190.22 132.897 189.258 133.438Q187.342 134.513 185.019 135.601Q181.769 137.122 178.167 138.452Q173.666 140.113 168.868 141.379Q156.658 144.6 143.591 145.015Q127.26 145.534 110.518 141.615L110.6 141.264L110.957 141.309ZM110.243 141.219L110.682 140.914Q127.332 144.811 143.568 144.296Q156.553 143.883 168.684 140.683Q173.449 139.426 177.918 137.776Q181.491 136.457 184.713 134.949Q187.013 133.872 188.906 132.81Q189.848 132.281 190.328 131.969L190.328 131.969L190.861 132.145L195.771 145.34L195.607 145.781Q181.579 153.495 164.838 156.589Q151.452 159.062 136.95 158.485Q131.254 158.259 125.578 157.563Q121.036 157.007 116.713 156.177Q113.623 155.584 110.951 154.914Q109.612 154.578 108.888 154.359L108.888 154.359L108.635 153.97L110.243 141.219ZM110.682 140.914L110.6 141.264L110.243 141.219C110.258 141.114 110.309 141.031 110.395 140.969C110.483 140.91 110.578 140.891 110.682 140.914ZM108.635 153.97L108.992 154.015L108.888 154.359C108.805 154.333 108.739 154.284 108.69 154.211C108.643 154.137 108.625 154.057 108.635 153.97ZM195.607 145.781L195.434 145.465L195.771 145.34C195.801 145.423 195.801 145.507 195.771 145.591C195.739 145.674 195.685 145.737 195.607 145.781ZM190.861 132.145L190.524 132.271L190.328 131.969C190.425 131.909 190.528 131.895 190.637 131.929C190.744 131.967 190.819 132.039 190.861 132.145Z">
</path>
<path    stroke="rgba(181, 80, 70, 1)" stroke-width="1.8" stroke-linejoin="round" stroke-linecap="round"  d="M31.3835 259.918L308.02 259.918">
</path>
<path d="M268.638 211.979C263.228 244.218 222.102 250.169 222.102 250.169C215.919 248.826 222.263 237.966 227.72 224.797C233.178 211.628 248.184 182.539 252.718 169.671C257.261 156.803 273.889 145.504 282.862 142.09C291.845 138.662 302.252 131.695 306.804 126.246C308.718 123.949 314.741 122.593 313.695 132.938C313.035 139.541 307.313 151.116 302.497 159.741L286.746 155.598C286.746 155.598 295.107 160.971 299.631 164.712C298.142 167.223 296.935 169.131 296.266 170.098C295.173 171.68 294.07 173.036 292.976 174.241C285.737 170.098 279.073 169.244 276.443 168.491C276.443 168.491 283.937 173.199 288.16 178.698C280.129 185.125 272.692 187.8 268.638 211.979Z"   fill="#B1BBAB" >
</path>
<path    stroke="rgba(59, 54, 48, 1)" stroke-width="0.5" stroke-linejoin="round" stroke-linecap="round"  d="M302.944 139.638C302.944 139.638 275.625 159.781 263.808 178.47C257.299 188.774 236.68 233.569 229.643 238.523">
</path>
<path    stroke="rgba(59, 54, 48, 1)" stroke-width="0.5" stroke-linejoin="round" stroke-linecap="round"  d="M277.143 188.373C277.143 188.373 265.251 184.539 259.562 186.127">
</path>
<path    stroke="rgba(59, 54, 48, 1)" stroke-width="0.5" stroke-linejoin="round" stroke-linecap="round"  d="M273.141 195.307C273.141 195.307 262.27 191.588 255.786 193.323">
</path>
<path    stroke="rgba(59, 54, 48, 1)" stroke-width="0.5" stroke-linejoin="round" stroke-linecap="round"  d="M281.517 142.635C281.517 142.635 283.952 150.539 282.635 156.776">
</path>
<path    stroke="rgba(59, 54, 48, 1)" stroke-width="0.5" stroke-linejoin="round" stroke-linecap="round"  d="M275.847 145.531C275.847 145.531 278.684 153.636 277.422 162.007">
</path>
<path    stroke="rgba(35, 31, 32, 1)" stroke-width="0.5" stroke-linejoin="round" stroke-linecap="round"  d="M26.0627 170.812C26.0627 170.812 80.126 188.323 90.2633 240.051">
</path>
<path d="M31.4462 165.838C-5.45578 160.186 13.325 173.065 24.8504 182.363C30.5784 181.678 36.4365 182.29 42.8848 184.361C43.2406 184.476 42.7546 185.112 42.7546 185.112C40.6197 185.56 35.343 186.686 30.8214 187.852L31.0904 188.228C36.341 195.984 64.5383 257.631 96.5021 244.075C96.5021 244.075 92.614 175.194 31.4462 165.838Z" stroke="rgba(35, 31, 32, 1)" stroke-width="0.5" stroke-linejoin="round" stroke-linecap="round" >
</path>
<path    stroke="rgba(35, 31, 32, 1)" stroke-width="0.5" stroke-linejoin="round" stroke-linecap="round"  d="M35.4461 195.836C35.4461 195.836 45.538 188.076 62.3723 192.509">
</path>
<path    stroke="rgba(35, 31, 32, 1)" stroke-width="0.5" stroke-linejoin="round" stroke-linecap="round"  d="M47.9075 170.211C47.9075 170.211 54.4054 176.846 53.9233 185.713">
</path>
<path    stroke="rgba(35, 31, 32, 1)" stroke-width="0.5" stroke-linejoin="round" stroke-linecap="round"  d="M59.4257 176.058C59.4257 176.058 60.5831 184.712 58.7237 189.403">
</path>
<path d="M32.082 231.517C35.1996 229.81 40.4578 226.44 42.9637 225.917C42.9637 225.917 37.6545 229.814 34.9957 233.135C45.5971 238.983 81.9543 258.702 90.1517 258.635C90.1517 258.635 83.9251 225.462 54.491 217.704C52.3843 217.15 50.3371 216.655 48.3493 216.227L46.9987 221.755L44.4503 215.434C21.1579 211.082 7.59184 215.24 5.35774 219.317C2.82632 223.953 32.082 231.517 32.082 231.517Z"   fill="#C8D2C6" >
</path>
<path    stroke="rgba(35, 31, 32, 1)" stroke-width="0.5" stroke-linejoin="round" stroke-linecap="round"  d="M15.1925 218.646C15.1925 218.646 69.4389 218.997 85.7615 255.222">
</path>
<path    stroke="rgba(35, 31, 32, 1)" stroke-width="0.5" stroke-linejoin="round" stroke-linecap="round"  d="M49.6553 241.034C49.6553 241.034 57.6059 231.55 63.7547 231.602">
</path>
<path    stroke="rgba(35, 31, 32, 1)" stroke-width="0.5" stroke-linejoin="round" stroke-linecap="round"  d="M55.5899 244.121C55.5899 244.121 61.7855 235.514 67.9343 234.284">
</path>
<path    stroke="rgba(35, 31, 32, 1)" stroke-width="0.5" stroke-linejoin="round" stroke-linecap="round"  d="M54.4811 217.868C54.4811 217.868 54.4001 221.544 55.3055 227.307">
</path>
<path d="M233.04 306.082C221.187 313.217 192.759 322.286 172.442 316.699C166.016 314.934 159.552 309.218 166.016 298.119C178.147 277.238 101.843 291.508 93.7316 282.846C85.5087 274.068 99.0099 263.159 133.994 257.912C168.979 252.671 181.517 254.653 181.517 254.653C181.517 254.653 223.058 245.272 236.115 254.891C249.153 264.51 245.578 263.444 264.525 265.25C276.544 266.391 283.526 278.969 266.191 283.029C249.153 287.014 253.857 293.544 233.04 306.082Z"   fill="#FBF7F4" >
</path>
<path d="M83.3162 181.979L48.9119 221.002L109.007 213.414L100.065 176.938L83.3162 181.979Z"   fill="#C8AF95" >
</path>
<path d="M83.3189 275.666L134.694 259.89L134.694 166.338L83.3189 182.059L83.3189 275.666Z"   fill="#C49A6C" >
</path>
<path    stroke="rgba(59, 54, 48, 1)" stroke-width="0.5" stroke-linejoin="round" stroke-linecap="round"  d="M235.178 244.047C235.178 244.047 282.994 186.415 324.872 174.267">
</path>
<path d="M323.063 187.695C326.706 182.94 364.656 163.258 316.76 168.502C304.2 169.873 292.41 175.003 281.849 181.823C282.724 184.686 283.706 188.837 283.493 192.647C283.493 192.647 280.229 187.948 277.367 184.865C250.131 204.254 232.119 233.594 232.119 233.594C232.119 233.594 209.46 241.335 233.716 248.48C256.718 255.25 302.971 212.052 320.485 190.909C317.351 188.25 312.42 185.289 310.989 184.449L311.048 184.286C314.714 184.89 319.326 186.594 322.437 187.859C322.661 187.957 323.063 187.695 323.063 187.695Z" stroke="rgba(59, 54, 48, 1)" stroke-width="0.5" stroke-linejoin="round" stroke-linecap="round" >
</path>
<path    stroke="rgba(59, 54, 48, 1)" stroke-width="0.5" stroke-linejoin="round" stroke-linecap="round"  d="M293.355 190.292C293.355 190.292 305.731 191.586 313.838 198.477">
</path>
<path    stroke="rgba(59, 54, 48, 1)" stroke-width="0.5" stroke-linejoin="round" stroke-linecap="round"  d="M287.847 194.157C287.847 194.157 305.975 197.238 308.943 203.639">
</path>
<path    stroke="rgba(59, 54, 48, 1)" stroke-width="0.5" stroke-linejoin="round" stroke-linecap="round"  d="M268.622 191.826C268.622 191.826 273.55 197.573 273.302 205.592">
</path>
<path d="M299.773 226.918L309.85 231.814C312.557 230.647 315.321 229.873 318.664 229.517C330.697 228.232 338.096 222.88 331.865 220.428C325.635 217.971 306.421 219.833 297.741 219.381C290.969 219.03 264.043 219.461 256.293 232.346C250.642 241.741 241.002 248.035 239.331 254.299C238.343 258.011 241.534 261.505 245.324 260.907C252.02 259.844 266.332 256.793 281.348 248.658C292.982 242.352 299.536 237.481 305.206 234.2C305.633 231.936 299.773 226.918 299.773 226.918Z"   fill="#C8D2C6" >
</path>
<path    stroke="rgba(59, 54, 48, 1)" stroke-width="0.5" stroke-linejoin="round" stroke-linecap="round"  d="M241.067 256.667C241.067 256.667 280.365 221.898 317.078 222.259">
</path>
<path    stroke="rgba(59, 54, 48, 1)" stroke-width="0.5" stroke-linejoin="round" stroke-linecap="round"  d="M281.691 230.733C281.691 230.733 291.77 234.007 295.901 240.049">
</path>
<path    stroke="rgba(59, 54, 48, 1)" stroke-width="0.5" stroke-linejoin="round" stroke-linecap="round"  d="M274.608 234.142C274.608 234.142 284.794 237.85 287.995 244.908">
</path>
<path d="M229.115 24.6329L215.462 37.5422L222.073 18.8438L229.115 24.6329Z"   fill="#F6E8D2" >
</path>
<path d="M242.936 72.2786L243.046 62.2814L227.197 66.8212L242.936 72.2786Z"   fill="#F6E8D2" >
</path>
<path d="M180.427 15.8288L178.641 32.5598L171.395 18.7166L180.427 15.8288Z"   fill="#F6E8D2" >
</path>
<path d="M210.293 200.255C210.293 200.255 203.56 134.744 228.062 111.929C228.062 111.929 263.182 172.008 210.293 200.255Z"   fill="#9C685D" >
</path>
<path d="M213.536 140.58C216.3 129.161 220.816 118.682 228.062 111.929C228.062 111.929 244.255 139.63 238.091 166.255C231.306 162.349 218.203 153.423 213.536 140.58Z"   fill="#774D46" >
</path>
<path d="M83.3189 181.978L83.3189 276.298L203.039 276.298L203.039 182.695L83.3189 181.978Z"   fill="#F6E8D2" >
</path>
<path d="M203.039 276.298L254.414 260.522L254.414 166.971L203.039 182.692L203.039 276.298Z"   fill="#C8AF95" >
</path>
<path d="M203.039 182.696L224.47 228.087L277.222 205.883L254.411 166.971L203.039 182.696Z"   fill="#F6E8D2" >
</path>
<circle cx="143.32008818359375" cy="236.364826953125" r="8.4222"   fill="#F3D2A6" >
</circle>
<ellipse cx="143.31109868164063" cy="221.023433984375" rx="3.5711999999999997" ry="4.818599999999999"   fill="#F3D2A6" >
</ellipse>
<ellipse cx="155.66429506976982" cy="234.06785258253058" transform="rotate(-57.43345279264373 149.84646606445312 229.7548828125)" rx="5.817829005316695" ry="4.312969770030567"   fill="#F3D2A6" >
</ellipse>
<ellipse cx="127.32209172836733" cy="230.35362239442716" transform="rotate(-32.56654720735626 122.99832153320312 224.52139282226562)" rx="4.323770195164199" ry="5.832229572161535"   fill="#F3D2A6" >
</ellipse>
<path d="M57.0059 287.719C56.441 287.213 55.7403 286.888 54.9988 286.732C52.2687 286.164 41.8761 284.315 39.8949 288.713C37.7688 293.434 48.4607 295.901 54.4394 293.951C59.3272 292.355 58.6005 289.148 57.0059 287.719Z"   fill="#FBF7F4" >
</path>
<path d="M93.1792 297.009C92.1867 296.122 90.9559 295.548 89.6532 295.275C84.8571 294.275 66.6002 291.03 63.1199 298.754C59.3849 307.048 78.1643 311.383 88.6705 307.957C97.257 305.155 95.9804 299.519 93.1792 297.009Z"   fill="#FBF7F4" >
</path>
<path d="M86.9071 152.279C86.9071 152.279 74.4215 158.854 74.4215 173.427C74.4215 188.005 87.3229 185.496 87.3229 185.496C87.3229 185.496 92.0432 199.353 111.756 190.991C111.756 190.991 129.041 198.806 134.22 179.997C139.717 160.044 127.201 151.066 117.736 149.054C108.57 147.106 97.4178 146.665 86.9071 152.279Z"   fill="#774D46" >
</path>
<path    stroke="rgba(59, 54, 48, 1)" stroke-width="0.5" stroke-linejoin="round" stroke-linecap="round"  d="M87.3239 185.495C87.3239 185.495 83.3207 176.881 88.6973 166.971">
</path>
<path    stroke="rgba(59, 54, 48, 1)" stroke-width="0.5" stroke-linejoin="round" stroke-linecap="round"  d="M111.757 190.99C111.757 190.99 110.085 177.879 111.757 171.113">
</path>
<path d="M166.477 151.085C166.477 151.085 147.479 150.982 141.313 161.839C134.752 173.381 137.01 192.424 153.895 190.753C153.895 190.753 165.042 202.201 175.083 190.86C175.083 190.86 183.973 196.891 191.81 190.99C201.487 183.705 199.732 164.075 191.81 157.775C182.49 150.368 166.477 151.085 166.477 151.085Z"   fill="#774D46" >
</path>
<path    stroke="rgba(59, 54, 48, 1)" stroke-width="0.5" stroke-linejoin="round" stroke-linecap="round"  d="M153.895 190.753C153.895 190.753 150.11 181.053 153.895 171.637">
</path>
<path    stroke="rgba(59, 54, 48, 1)" stroke-width="0.5" stroke-linejoin="round" stroke-linecap="round"  d="M175.081 190.861C175.081 190.861 178.107 187.132 176.435 172.598">
</path>
<path d="M16.2937 67.28C16.2937 67.28 17.4498 72.3286 17.536 72.4589C17.6202 72.5879 21.1973 73.5345 21.1973 73.5345C21.1973 73.5345 17.7054 74.6612 17.6202 74.7915C17.536 74.9205 16.2054 80.0546 16.2054 80.0546C16.2054 80.0546 15.0236 75.0943 14.8111 74.8784C14.5986 74.6612 10.9301 73.4936 10.9301 73.4936C10.9301 73.4936 14.6869 72.7143 14.8573 72.455C15.0267 72.1957 16.2937 67.28 16.2937 67.28Z"   fill="#E8C481" >
</path>
<path d="M35.0141 85.4636C35.0141 85.4636 33.6894 92.5381 33.5747 92.7135C33.4586 92.8906 28.6187 94.4096 28.6187 94.4096C28.6187 94.4096 33.3439 95.6961 33.4586 95.8714C33.5747 96.045 35.0141 103.356 35.0141 103.356C35.0141 103.356 36.9738 96.2811 37.2619 95.9877C37.5501 95.6961 42.2753 94.9357 42.2753 94.9357C42.2753 94.9357 37.5501 93.2985 37.3193 92.9479C37.0899 92.5954 35.0141 85.4636 35.0141 85.4636Z"   fill="#E8C481" >
</path>
<path d="M209.879 90.7358C209.879 90.7358 211.203 97.8103 211.318 97.9857C211.434 98.161 216.274 99.6818 216.274 99.6818C216.274 99.6818 211.549 100.968 211.434 101.144C211.318 101.317 209.879 108.628 209.879 108.628C209.879 108.628 207.919 101.553 207.631 101.26C207.343 100.968 202.617 100.208 202.617 100.208C202.617 100.208 207.343 98.569 207.573 98.2201C207.803 97.8694 209.879 90.7358 209.879 90.7358Z"   fill="#E8C481" >
</path>
</svg>
